<svg width="16" height="16" viewBox="0 0 16 16" fill="none" xmlns="http://www.w3.org/2000/svg">
<path d="M7.96 3C5.2 3 2.96 5.24 2.96 8C2.96 10.76 5.2 13 7.96 13C10.72 13 12.96 10.76 12.96 8C12.96 5.24 10.72 3 7.96 3ZM7.96 10.51C6.57 10.51 5.45 9.39 5.45 8C5.45 6.61 6.57 5.49 7.96 5.49C9.35 5.49 10.47 6.62 10.47 8C10.47 9.38 9.34 10.51 7.96 10.51Z" fill="#8CA2BB"/>
<path d="M9 4H7V1H9V4ZM9 12H7V15H9V12Z" fill="#8CA2BB"/>
<path d="M5.88 4.46L4.46 5.88L2.34 3.76L3.75 2.35L5.88 4.46ZM11.54 10.12L10.13 11.53L12.25 13.65L13.66 12.24L11.54 10.12Z" fill="#8CA2BB"/>
<path d="M4 7V9H1V7H4ZM12 7V9H15V7H12Z" fill="#8CA2BB"/>
<path d="M4.46 10.12L5.87 11.53L3.75 13.65L2.34 12.24L4.46 10.12ZM10.12 4.46L11.53 5.87L13.65 3.75L12.24 2.34L10.12 4.46Z" fill="#8CA2BB"/>
</svg>
