<svg width="24" height="24" viewBox="0 0 24 24" fill="none" xmlns="http://www.w3.org/2000/svg">
<path d="M20 12C20 9.89454 18.4384 8.09303 16.2276 7.35596C17.0288 8.38457 17.5 9.63244 17.5 11C17.5 13.7047 15.6571 15.9412 13.0629 16.9394C13.3682 16.9793 13.6812 17 14 17C14.384 17 14.7597 16.9699 15.1236 16.9125C15.5869 17.5961 16.4302 18.0161 18.0132 18.0161C17.5754 17.3699 17.2726 16.7218 17.1869 16.2372C18.8768 15.3527 20 13.7857 20 12Z" fill="#2A5885"/>
<path d="M5.98 17C7.56784 17 8.413 16.5858 8.8756 15.9124C9.23982 15.9699 9.61569 16 10 16C13.3137 16 16 13.7614 16 11C16 8.23858 13.3137 6 10 6C6.68629 6 4 8.23858 4 11C4 12.7848 5.12223 14.3512 6.81076 15.2359C6.73166 15.7122 6.42585 16.3571 5.98 17Z" fill="#6366F1"/>
</svg>
