<svg width="24" height="24" viewBox="0 0 24 24" fill="none" xmlns="http://www.w3.org/2000/svg">
<path d="M14.134 3.64999C14.987 3.64999 15.594 3.92799 16.122 4.54899C16.139 4.56799 16.616 5.15899 16.782 5.36399C17.01 5.64499 17.456 5.89999 17.727 5.89999H18.137C20.556 5.89999 22 7.46299 22 9.94999V15.8C22 18.041 20 20 17.727 20H6.273C4.006 20 2.05 18.047 2.05 15.8V9.94999C2.05 7.45399 3.45 5.89999 5.864 5.89999H6.273C6.544 5.89999 6.99 5.64499 7.218 5.36399C7.384 5.15999 7.861 4.56799 7.878 4.54899C8.406 3.92799 9.013 3.64999 9.866 3.64999H14.134Z" stroke="#828A99" stroke-width="1.7"/>
<path d="M12 15.85C14.1263 15.85 15.85 14.1263 15.85 12C15.85 9.8737 14.1263 8.14999 12 8.14999C9.8737 8.14999 8.15 9.8737 8.15 12C8.15 14.1263 9.8737 15.85 12 15.85Z" stroke="#828A99" stroke-width="1.7"/>
</svg>
