<svg width="24" height="24" viewBox="0 0 24 24" fill="none" xmlns="http://www.w3.org/2000/svg">
<path d="M11.3445 5.29787C11.6458 4.90071 12.2485 4.90071 12.6502 5.29787L19.781 12.2482C20.1828 12.5461 19.9819 12.844 19.5802 12.9433L18 13V18C18 19 18 19 17 19H14.4954C14.2158 19 14 18.7802 14 18.509V14.9979C14 13.8983 13.1046 13 12 13C10.8877 13 10 13.8945 10 14.9979V18.509C10 18.7721 9.77821 19 9.50461 19H7C6 19 6 19 6 18V13L4.51502 12.9433C4.01284 12.9433 3.81198 12.6454 4.21371 12.2482L11.3445 5.29787Z" fill="#2563EB"/>
</svg>
