<?xml version="1.0" encoding="iso-8859-1"?>
<svg xmlns="http://www.w3.org/2000/svg" xmlns:xlink="http://www.w3.org/1999/xlink" viewBox="0 0 30 30" width="20px" height="20px">
    <path fill="#4B5563" d="M24.62,5.049C24.62,5.049,19.186,4,15,4S5.38,5.049,5.38,5.049L2,9c0,0,0,3.136,0,6c0,0,0,0.001,0,0.001c0,2.864,0,6,0,6l3.38,3.951c0,0,5.434,1.049,9.62,1.049s9.62-1.049,9.62-1.049L28,21.001c0,0,0-3.136,0-6c0,0,0-0.001,0-0.001c0-2.864,0-6,0-6L24.62,5.049z M12,19.601v-9.202L20,15L12,19.601z"/>
    <circle fill="#4B5563" cx="24" cy="9" r="4"/>
    <circle fill="#4B5563" cx="24" cy="21" r="4"/>
    <path fill="#4B5563" d="M2,9c0,2.209,1.791,4,4,4s3-1.791,3-4S8.209,5,6,5S2,6.791,2,9z"/>
    <circle fill="#4B5563" cx="6" cy="21" r="4"/>
</svg>